# This file uses centimeters as units for non-parametric coordinates.

mtllib YTZ_dice.mtl
g default
v -18.333332 -18.333332 20.000000
v 18.333332 -18.333332 20.000000
v 18.333332 18.333332 20.000000
v -18.333332 18.333332 20.000000
v -18.333332 20.000000 18.333332
v 18.333332 20.000000 18.333332
v 18.333332 20.000000 -18.333332
v -18.333332 20.000000 -18.333332
v -18.333332 18.333332 -20.000000
v 18.333332 18.333332 -20.000000
v 18.333332 -18.333332 -20.000000
v -18.333332 -18.333332 -20.000000
v -18.333332 -20.000000 -18.333332
v 18.333332 -20.000000 -18.333332
v 18.333332 -20.000000 18.333332
v -18.333332 -20.000000 18.333332
v 20.000000 -18.333332 -18.333332
v 20.000000 -18.333332 18.333332
v 20.000000 18.333332 -18.333332
v 20.000000 18.333332 18.333332
v -20.000000 -18.333332 -18.333332
v -20.000000 -18.333332 18.333332
v -20.000000 18.333332 18.333332
v -20.000000 18.333332 -18.333332
vt 0.041667 0.041667
vt 0.958333 0.041667
vt 0.958333 0.958333
vt 0.041667 0.958333
vt 0.958333 -0.000000
vt 0.041667 -0.000000
vt 1.000000 0.958333
vt 1.000000 0.041667
vt 0.958333 1.000000
vt 0.041667 1.000000
vt 0.000000 0.958333
vt 0.000000 0.041667
vt 0.000000 0.958333
vt 0.000000 0.041667
vt 0.956522 0.041667
vt 0.956522 0.958333
vt 0.956522 0.000000
vt 0.000000 0.000000
vt 1.000000 0.041667
vt 1.000000 0.958333
vt 0.956522 1.000000
vt 0.000000 1.000000
vt 0.000000 0.958333
vt 0.000000 0.041667
vt 0.956521 0.041667
vt 0.956521 0.958333
vt 0.956521 -0.000000
vt 0.000000 -0.000000
vt 1.000000 0.041667
vt 1.000000 0.958333
vt 0.956521 1.000000
vt 0.000000 1.000000
vt -0.000000 0.958333
vt -0.000000 0.041667
vt 1.000000 0.041667
vt 1.000000 0.958333
vt 1.000000 0.000000
vt -0.000000 0.000000
vt 1.000000 1.000000
vt -0.000000 1.000000
vt 0.000000 0.000000
vt 1.000000 0.000000
vt 1.000000 1.000000
vt 0.000000 1.000000
vt 0.000000 0.000000
vt 1.000000 0.000000
vt 1.000000 1.000000
vt 0.000000 1.000000
vn 0.000000 0.000000 1.000000
vn 0.000000 0.000000 1.000000
vn 0.000000 0.000000 1.000000
vn 0.000000 0.000000 1.000000
vn 0.000000 1.000000 0.000000
vn 0.000000 1.000000 0.000000
vn 0.000000 1.000000 0.000000
vn 0.000000 1.000000 0.000000
vn 0.000000 0.000000 -1.000000
vn 0.000000 0.000000 -1.000000
vn 0.000000 0.000000 -1.000000
vn 0.000000 0.000000 -1.000000
vn 0.000000 -1.000000 0.000000
vn 0.000000 -1.000000 0.000000
vn 0.000000 -1.000000 0.000000
vn 0.000000 -1.000000 0.000000
vn 1.000000 0.000000 0.000000
vn 1.000000 0.000000 0.000000
vn 1.000000 0.000000 0.000000
vn 1.000000 0.000000 0.000000
vn -1.000000 0.000000 0.000000
vn -1.000000 0.000000 0.000000
vn -1.000000 0.000000 0.000000
vn -1.000000 0.000000 0.000000
vn 0.707107 0.000000 0.707107
vn 0.707107 0.000000 0.707107
vn 0.707107 0.000000 0.707107
vn 0.707107 0.000000 0.707107
vn 0.707107 0.707107 0.000000
vn 0.707107 0.707107 0.000000
vn 0.707107 0.707107 0.000000
vn 0.707107 0.707107 0.000000
vn 0.000000 0.707107 -0.707107
vn 0.000000 0.707107 -0.707107
vn 0.000000 0.707107 -0.707107
vn 0.000000 0.707107 -0.707107
vn 0.577350 -0.577350 -0.577350
vn 0.577350 -0.577350 -0.577350
vn 0.577350 -0.577350 -0.577350
vn -0.577350 0.577350 0.577350
vn -0.577350 0.577350 0.577350
vn -0.577350 0.577350 0.577350
vn -0.707107 0.000000 -0.707107
vn -0.707107 0.000000 -0.707107
vn -0.707107 0.000000 -0.707107
vn -0.707107 0.000000 -0.707107
vn -0.577350 0.577350 -0.577350
vn -0.577350 0.577350 -0.577350
vn -0.577350 0.577350 -0.577350
vn -0.577350 -0.577350 -0.577350
vn -0.577350 -0.577350 -0.577350
vn -0.577350 -0.577350 -0.577350
vn 0.707107 0.000000 -0.707107
vn 0.707107 0.000000 -0.707107
vn 0.707107 0.000000 -0.707107
vn 0.707107 0.000000 -0.707107
vn 0.707107 -0.707107 0.000000
vn 0.707107 -0.707107 0.000000
vn 0.707107 -0.707107 0.000000
vn 0.707107 -0.707107 0.000000
vn 0.000000 -0.707107 -0.707107
vn 0.000000 -0.707107 -0.707107
vn 0.000000 -0.707107 -0.707107
vn 0.000000 -0.707107 -0.707107
vn 0.577350 -0.577350 0.577350
vn 0.577350 -0.577350 0.577350
vn 0.577350 -0.577350 0.577350
vn 0.577350 0.577350 0.577350
vn 0.577350 0.577350 0.577350
vn 0.577350 0.577350 0.577350
vn -0.707107 0.707107 0.000000
vn -0.707107 0.707107 0.000000
vn -0.707107 0.707107 0.000000
vn -0.707107 0.707107 0.000000
vn -0.577350 -0.577350 0.577350
vn -0.577350 -0.577350 0.577350
vn -0.577350 -0.577350 0.577350
vn 0.000000 0.707107 0.707107
vn 0.000000 0.707107 0.707107
vn 0.000000 0.707107 0.707107
vn 0.000000 0.707107 0.707107
vn -0.707107 0.000000 0.707107
vn -0.707107 0.000000 0.707107
vn -0.707107 0.000000 0.707107
vn -0.707107 0.000000 0.707107
vn -0.707107 -0.707107 0.000000
vn -0.707107 -0.707107 0.000000
vn -0.707107 -0.707107 0.000000
vn -0.707107 -0.707107 0.000000
vn 0.000000 -0.707107 0.707107
vn 0.000000 -0.707107 0.707107
vn 0.000000 -0.707107 0.707107
vn 0.000000 -0.707107 0.707107
vn 0.577350 0.577350 -0.577350
vn 0.577350 0.577350 -0.577350
vn 0.577350 0.577350 -0.577350
s off
g De_01
usemtl MAT_De03SG
f 1/1/1 2/2/2 3/3/3 4/4/4
usemtl MAT_De01SG
f 5/13/5 6/14/6 7/15/7 8/16/8
usemtl MAT_De04SG
f 9/23/9 10/24/10 11/25/11 12/26/12
usemtl MAT_De06SG
f 13/33/13 14/34/14 15/35/15 16/36/16
usemtl MAT_De05SG
f 18/41/17 17/42/18 19/43/19 20/44/20
usemtl MAT_De02SG
f 21/45/21 22/46/22 23/47/23 24/48/24
usemtl MAT_De03SG
f 20/7/25 3/3/26 2/2/27 18/8/28
usemtl MAT_De01SG
f 19/17/29 7/15/30 6/14/31 20/18/32
usemtl MAT_De04SG
f 7/15/33 10/19/34 9/20/35 8/16/36
f 14/29/37 11/25/38 17/27/39
usemtl MAT_De02SG
f 5/10/40 23/11/41 4/4/42
f 12/26/43 21/31/44 24/32/45 9/23/46
f 9/20/47 24/21/48 8/16/49
f 13/30/50 21/31/51 12/26/52
usemtl MAT_De04SG
f 17/27/53 11/25/54 10/24/55 19/28/56
usemtl MAT_De06SG
f 18/37/57 15/35/58 14/34/59 17/38/60
f 11/25/61 14/29/62 13/30/63 12/26/64
f 15/5/65 18/8/66 2/2/67
usemtl MAT_De03SG
f 6/9/68 3/3/69 20/7/70
usemtl MAT_De02SG
f 8/16/71 24/21/72 23/22/73 5/13/74
f 16/6/75 1/1/76 22/12/77
usemtl MAT_De01SG
f 3/3/78 6/9/79 5/10/80 4/4/81
usemtl MAT_De02SG
f 4/4/82 23/11/83 22/12/84 1/1/85
f 16/36/86 22/39/87 21/40/88 13/33/89
usemtl MAT_De03SG
f 15/5/90 2/2/91 1/1/92 16/6/93
usemtl MAT_De01SG
f 10/19/94 7/15/95 19/17/96
